<svg id="svg" xmlns="http://www.w3.org/2000/svg" width="646" height="618" viewBox="0 0 646 618">
  <defs>
    <style>
      .cls-1 {
        stroke: #000;
        stroke-width: 1px;
        fill-rule: evenodd;
      }
    </style>
  </defs>
  <path id="Forma_1" data-name="Forma 1" class="cls-1" d="M610.749,349.048h6.045c0.177,22.646,4.893,81.465-1.512,96.712-2.65-.953-1.467-0.292-3.022-1.511-9.776-3.767-7.689-15.533-18.133-18.134-29.693,25.193-112.174,44.712-161.689,22.667-47.3-21.059-75.655-52.243-90.667-105.778q-0.756-11.332-1.511-22.667c-2.608-12.106-3.565-43.01,0-55.911,17.923-64.858,54.461-104.025,120.889-120.889,11.039-2.8,45.221-9.562,61.956-4.533,12.976,3.9,28.433,7.953,40.8,13.6,11.481,5.242,19,15.553,34.755,16.622,3.518-7.134,8.5-11.25,13.6-16.622l4.534,1.511v4.533c-3.187,5.446,0,19.3,0,28.711,0.009,24.659,2.8,52.587-3.023,66.489h-3.022v-3.022c-4.528-7.369-2.95-17.081-6.044-25.689-11.223-31.218-35.66-62.609-66.489-74.045-52.9-19.623-105.6,10.175-125.423,42.312-32.09,52.015-23.546,92.111-25.689,140.533,9.719,42.257,31.605,91.322,66.489,107.289C528.751,475.627,603.131,416.063,610.749,349.048Zm-299.2,101.245c-13.385,1.461-66.877,3.91-72.534,0-6.684-4.619-9.315-18.411-13.6-25.689-17.773-30.186-54.289-90.618-83.111-107.289-9.442-5.461-23.832-6.117-37.778-6.044-2.991,9.024-1.511,24.716-1.511,36.266v83.112c1.2,1.481,2.185,4.145,3.022,6.044,9.15,5,24.092,5.855,34.756,10.578q-0.756,1.511-1.511,3.022c-3.387,1.177-8.208,1.543-13.6,1.511-5.354-3.22-19.365,0-28.712,0-25.889.009-42.746-.235-68,0a21.371,21.371,0,0,1-1.511-6.044H28.97v-1.511c11.165,0.151,15.982-2.494,24.178-4.534,8.435-14.821,6.044-43.135,6.044-66.489V229.67c0-20.343,4.86-50.692-1.511-68-4.358-11.839-17.672-7.085-27.2-13.6-1.136-1.621-.909-1.429-1.511-4.533,1.637-1.373.128,0.118,1.511-1.511,43.384,4.681,128.924-11.441,175.29,6.044,35.168,13.263,78.026,58.749,51.377,111.823-12.024,23.947-38.035,36.206-63.466,46.844v3.022c22.048,15.351,53.357,65.939,68,90.667,7.018,11.853,9.953,28.944,21.155,36.267,7.874,5.147,19.28,5.8,28.712,9.067v4.533ZM103.015,302.2c43.232,2.708,84.863-4.294,102.756-31.734,6.077-9.32,6.1-18.959,9.066-31.733,12.049-51.936-22.514-80.571-58.933-90.667-14.653-4.061-32.71,2-43.822,3.022l-9.067,10.578V302.2Z"/>
</svg>
